<mxfile host="app.diagrams.net" modified="2023-11-29T09:01:38.917Z" agent="Mozilla/5.0 (Windows NT 10.0; Win64; x64) AppleWebKit/537.36 (KHTML, like Gecko) Chrome/118.0.0.0 Safari/537.36" version="22.1.4" etag="087E_GsGTXF08aPkHtwG" type="github">
  <diagram name="PÃ¡gina-1" id="e4LgDw6Ylix87TDFcCZN">
    <mxGraphModel>
      <root>
        <mxCell id="0" />
        <mxCell id="1" parent="0" />
      </root>
    </mxGraphModel>
  </diagram>
</mxfile>
